<svg width="24" height="24" viewBox="0 0 24 24" fill="none" xmlns="http://www.w3.org/2000/svg">
  <path fill-rule="evenodd" clip-rule="evenodd" d="M13.3092 4.89003C14.264 3.93525 15.559 3.39886 16.9092 3.39886C18.2595 3.39886 19.5544 3.93525 20.5092 4.89003C21.464 5.84481 22.0004 7.13977 22.0004 8.49003C22.0004 9.84029 21.464 11.1353 20.5092 12.09L19.1992 13.4L11.9992 20.6L4.79922 13.4L3.48922 12.09C2.53444 11.1353 1.99805 9.84029 1.99805 8.49003C1.99805 7.13977 2.53444 5.84481 3.48922 4.89003C4.444 3.93525 5.73895 3.39886 7.08922 3.39886C8.43948 3.39886 9.73444 3.93525 10.6892 4.89003L11.9992 6.20003L13.3092 4.89003Z" stroke="#151515" stroke-width="2.5" stroke-linecap="round" stroke-linejoin="round"/>
</svg>
